<?xml version="1.0" encoding="utf-8"?>
<!-- Generator: Adobe Illustrator 25.4.1, SVG Export Plug-In . SVG Version: 6.00 Build 0)  -->
<svg version="1.1" id="Layer_1" xmlns="http://www.w3.org/2000/svg" xmlns:xlink="http://www.w3.org/1999/xlink" x="0px" y="0px"
	 width="739.1px" height="115.8px" viewBox="0 0 739.1 115.8" style="enable-background:new 0 0 739.1 115.8;" xml:space="preserve"
	>
<style type="text/css">
	.st0{fill:#00A1E1;}
	.st1{fill:#0066BA;}
	.st2{fill:#9EA9AE;}
</style>
<path class="st0" d="M111.3,113.5H85.9V48.8L55.7,98.4L25.5,48.8v64.7H0V2.2h25.4l30.2,49.5L85.8,2.2h25.4v111.3H111.3z"/>
<path class="st1" d="M125.6,57.9c0-32.8,24.3-57.9,57.9-57.9c20.2,0,38,10,47.7,25.8l-22,12.7c-4.9-8.6-14.5-13.7-25.8-13.7
	C163.7,24.8,151,38,151,57.9S163.7,91,183.4,91c11.3,0,21-5.1,25.8-13.7l22,12.7c-9.5,15.7-27.4,25.8-47.7,25.8
	C149.9,115.8,125.6,90.6,125.6,57.9z"/>
<path class="st2" d="M354.5,113.5h-25.4V48.8l-30.2,49.6l-30.2-49.6v64.7h-25.4V2.2h25.4l30.2,49.5l30.2-49.5h25.4V113.5z"/>
<path class="st2" d="M399,2.2v111.3h-25.5V2.2H399z"/>
<path class="st2" d="M413.3,57.9c0-32.8,24.3-57.9,57.9-57.9c20.2,0,38,10,47.7,25.8l-22,12.7c-4.9-8.6-14.5-13.7-25.8-13.7
	c-19.7,0-32.4,13.2-32.4,33.1S451.4,91,471.1,91c11.3,0,21-5.1,25.8-13.7l22,12.7c-9.5,15.7-27.4,25.8-47.7,25.8
	C437.6,115.8,413.3,90.6,413.3,57.9z"/>
<path class="st2" d="M568.3,76.9h-12.1v36.6h-25.4V2.2h44.5c21.2,0,38.2,17,38.2,38.2c0,13.7-8.3,26.1-20.5,32.3l23.7,40.9h-27.4
	L568.3,76.9z M556.3,54.7h19.1c7,0,12.7-6.2,12.7-14.3s-5.7-14.3-12.7-14.3h-19.1V54.7z"/>
<circle class="st2" cx="681.2" cy="57.9" r="57.9"/>
<circle class="st0" cx="681.2" cy="57.9" r="33.3"/>
<circle class="st1" cx="681.2" cy="57.9" r="12"/>
</svg>
