<?xml version="1.0" encoding="utf-8"?>
<!-- Generator: Adobe Illustrator 25.2.1, SVG Export Plug-In . SVG Version: 6.00 Build 0)  -->
<svg version="1.1" id="Layer_1" xmlns="http://www.w3.org/2000/svg" xmlns:xlink="http://www.w3.org/1999/xlink" x="0px" y="0px"
	 viewBox="0 0 792 170.5" style="enable-background:new 0 0 792 170.5;" xml:space="preserve">
<style type="text/css">
	.st0{fill:#00A1E1;}
	.st1{fill:#0066BA;}
	.st2{fill:#9EA9AE;}
</style>
<path class="st0" d="M137.8,140.9h-25.4V76.2l-30.2,49.6L52,76.2v64.7H26.5V29.6h25.4l30.2,49.5l30.2-49.5h25.4v111.3H137.8z"/>
<path class="st1" d="M152.1,85.3c0-32.8,24.3-57.9,57.9-57.9c20.2,0,38,10,47.7,25.8l-22,12.7c-4.9-8.6-14.5-13.7-25.8-13.7
	c-19.7,0-32.4,13.2-32.4,33.1s12.7,33.1,32.4,33.1c11.3,0,21-5.1,25.8-13.7l22,12.7c-9.5,15.7-27.4,25.8-47.7,25.8
	C176.4,143.2,152.1,118,152.1,85.3z"/>
<path class="st2" d="M381,140.9h-25.4V76.2l-30.2,49.6l-30.2-49.6v64.7h-25.4V29.6h25.4l30.2,49.5l30.2-49.5H381V140.9z"/>
<path class="st2" d="M425.5,29.6v111.3H400V29.6H425.5z"/>
<path class="st2" d="M439.8,85.3c0-32.8,24.3-57.9,57.9-57.9c20.2,0,38,10,47.7,25.8l-22,12.7c-4.9-8.6-14.5-13.7-25.8-13.7
	c-19.7,0-32.4,13.2-32.4,33.1s12.7,33.1,32.4,33.1c11.3,0,21-5.1,25.8-13.7l22,12.7c-9.5,15.7-27.4,25.8-47.7,25.8
	C464.1,143.2,439.8,118,439.8,85.3z"/>
<path class="st2" d="M594.8,104.3h-12.1v36.6h-25.4V29.6h44.5c21.2,0,38.2,17,38.2,38.2c0,13.7-8.3,26.1-20.5,32.3l23.7,40.9h-27.4
	L594.8,104.3z M582.8,82.1h19.1c7,0,12.7-6.2,12.7-14.3s-5.7-14.3-12.7-14.3h-19.1V82.1z"/>
<circle class="st2" cx="707.7" cy="85.3" r="57.9"/>
<circle class="st0" cx="707.7" cy="85.3" r="33.3"/>
<circle class="st1" cx="707.7" cy="85.3" r="12"/>
</svg>
