<svg xmlns="http://www.w3.org/2000/svg" xmlns:sodipodi="http://sodipodi.sourceforge.net/DTD/sodipodi-0.dtd" xmlns:inkscape="http://www.inkscape.org/namespaces/inkscape" width="1658.6" height="628.1" viewBox="0 0 439 166" inkscape:version="0.92.4 (5da689c313, 2019-01-14)" sodipodi:docname="imgmap_modules.svg"><sodipodi:namedview pagecolor="#ffffff" bordercolor="#666666" borderopacity="1" inkscape:pageopacity="0" inkscape:pageshadow="2" inkscape:zoom=".7" inkscape:cx="706.4" inkscape:cy="551.1" inkscape:document-units="mm" inkscape:current-layer="layer1" showgrid="false" units="in" inkscape:window-width="1920" inkscape:window-height="1137" inkscape:window-x="-8" inkscape:window-y="-8" inkscape:window-maximized="1"/><g inkscape:label="Layer 1" inkscape:groupmode="layer"><path style="fill:#000000;stroke:#000000;stroke-width:0.26458332px;stroke-linecap:butt;stroke-linejoin:miter;stroke-opacity:1;fill-opacity:1" d="M1 161h63l-1 52-63 1Z" inkscape:connector-curvature="0" transform="translate(0 -131)"/><path style="fill:#000000;stroke:#000000;stroke-width:0.26458332px;stroke-linecap:butt;stroke-linejoin:miter;stroke-opacity:1;fill-opacity:1" d="m73 160 65 1-2 50H73z" inkscape:connector-curvature="0" transform="translate(0 -131)"/><path style="fill:#000000;stroke:#000000;stroke-width:0.26458332px;stroke-linecap:butt;stroke-linejoin:miter;stroke-opacity:1;fill-opacity:1" d="M107 245h63v52h-62z" inkscape:connector-curvature="0" transform="translate(0 -131)"/><path style="fill:#000000;stroke:#000000;stroke-width:0.26458332px;stroke-linecap:butt;stroke-linejoin:miter;stroke-opacity:1;fill-opacity:1" d="m198 161 64-1v46l-64-2z" inkscape:connector-curvature="0" transform="translate(0 -131)"/><path style="fill:#000000;stroke:#000000;stroke-width:0.30432862px;stroke-linecap:butt;stroke-linejoin:miter;stroke-opacity:1;fill-opacity:1" d="m200 206 63 1-1 32-63-3z" inkscape:connector-curvature="0" transform="translate(0 -131)"/><path style="fill:#000000;stroke:#000000;stroke-width:0.26458332px;stroke-linecap:butt;stroke-linejoin:miter;stroke-opacity:1;fill-opacity:1" d="M271 160h63l1 52h-63z" inkscape:connector-curvature="0" transform="translate(0 -131)"/><path style="fill:#000000;stroke:#000000;stroke-width:0.26458332px;stroke-linecap:butt;stroke-linejoin:miter;stroke-opacity:1;fill-opacity:1" d="m271 245 62-1 2 52-63-1z" inkscape:connector-curvature="0" transform="translate(0 -131)"/><path style="fill:#000000;stroke:#000000;stroke-width:0.26458332px;stroke-linecap:butt;stroke-linejoin:miter;stroke-opacity:1;fill-opacity:1" d="m344 159 42 1v56l-41-1z" inkscape:connector-curvature="0" transform="translate(0 -131)"/><path style="fill:#000000;stroke:#000000;stroke-width:0.26458332px;stroke-linecap:butt;stroke-linejoin:miter;stroke-opacity:1;fill-opacity:1" d="M396 160h42l-1 57-41-1z" inkscape:connector-curvature="0" transform="translate(0 -131)"/><path style="fill:#000000;stroke:#000000;stroke-width:0.26458332px;stroke-linecap:butt;stroke-linejoin:miter;stroke-opacity:1;fill-opacity:1" d="m394 242 44 1 1 54h-46z" inkscape:connector-curvature="0" transform="translate(0 -131)"/></g></svg>