<svg xmlns="http://www.w3.org/2000/svg" xmlns:sodipodi="http://sodipodi.sourceforge.net/DTD/sodipodi-0.dtd" xmlns:inkscape="http://www.inkscape.org/namespaces/inkscape" width="1762.6" height="943.4" viewBox="0 0 466 250" inkscape:version="0.92.4 (5da689c313, 2019-01-14)" sodipodi:docname="imgmap_overview.svg"><sodipodi:namedview pagecolor="#ffffff" bordercolor="#666666" borderopacity="1" inkscape:pageopacity="0" inkscape:pageshadow="2" inkscape:zoom=".5" inkscape:cx="1156.5" inkscape:cy="245.7" inkscape:document-units="mm" inkscape:current-layer="layer1" showgrid="false" units="in" inkscape:window-width="1920" inkscape:window-height="1137" inkscape:window-x="-8" inkscape:window-y="-8" inkscape:window-maximized="1"/><g inkscape:label="Layer 1" inkscape:groupmode="layer"><path style="fill:#000000;stroke:#000000;stroke-width:0.26458332px;stroke-linecap:butt;stroke-linejoin:miter;stroke-opacity:1;fill-opacity:1" d="M10 160h63v53H9Z" inkscape:connector-curvature="0" transform="translate(0 -47)"/><path style="fill:#000000;stroke:#000000;stroke-width:0.26458332px;stroke-linecap:butt;stroke-linejoin:miter;stroke-opacity:1;fill-opacity:1" d="M116 244v53l65-1-2-54z" inkscape:connector-curvature="0" transform="translate(0 -47)"/><path style="fill:#000000;stroke:#000000;stroke-width:0.26458332px;stroke-linecap:butt;stroke-linejoin:miter;stroke-opacity:1;fill-opacity:1" d="m208 159 64 1-1 44h-64z" inkscape:connector-curvature="0" transform="translate(0 -47)"/><path style="fill:#000000;stroke:#000000;stroke-width:0.26458332px;stroke-linecap:butt;stroke-linejoin:miter;stroke-opacity:1;fill-opacity:1" d="M207 204" inkscape:connector-curvature="0" transform="translate(0 -47)"/><path style="fill:#000000;stroke:#000000;stroke-width:0.28721276px;stroke-linecap:butt;stroke-linejoin:miter;stroke-opacity:1;fill-opacity:1" d="m208 205 63 1v31l-64 1z" inkscape:connector-curvature="0" transform="translate(0 -47)"/><path style="fill:#000000;stroke:#000000;stroke-width:0.26458332px;stroke-linecap:butt;stroke-linejoin:miter;stroke-opacity:1;fill-opacity:1" d="m82 160 63 1v47H82Z" inkscape:connector-curvature="0" transform="translate(0 -47)"/><path style="fill:#000000;stroke:#000000;stroke-width:0.26458332px;stroke-linecap:butt;stroke-linejoin:miter;stroke-opacity:1;fill-opacity:1" d="m282 160 61 1v49l-62-1z" inkscape:connector-curvature="0" transform="translate(0 -47)"/><path style="fill:#000000;stroke:#000000;stroke-width:0.26458332px;stroke-linecap:butt;stroke-linejoin:miter;stroke-opacity:1;fill-opacity:1" d="M281 244h62v52h-61z" inkscape:connector-curvature="0" transform="translate(0 -47)"/><path style="fill:#000000;stroke:#000000;stroke-width:0.26458332px;stroke-linecap:butt;stroke-linejoin:miter;stroke-opacity:1;fill-opacity:1" d="m354 159 41 1v54h-41z" inkscape:connector-curvature="0" transform="translate(0 -47)"/><path style="fill:#000000;stroke:#000000;stroke-width:0.26458332px;stroke-linecap:butt;stroke-linejoin:miter;stroke-opacity:1;fill-opacity:1" d="M405 160h42l-1 56-41-1z" inkscape:connector-curvature="0" transform="translate(0 -47)"/><path style="fill:#000000;stroke:#000000;stroke-width:0.26458332px;stroke-linecap:butt;stroke-linejoin:miter;stroke-opacity:1;fill-opacity:1" d="m401 234 46 1-1 48-2 7-42-1z" inkscape:connector-curvature="0" transform="translate(0 -47)"/></g></svg>